<svg xmlns="http://www.w3.org/2000/svg" version="1.1" xmlns:xlink="http://www.w3.org/1999/xlink" xmlns:svgjs="http://svgjs.dev/svgjs" width="300" height="300"><svg width="300" height="300" viewBox="0 0 300 300" fill="none" xmlns="http://www.w3.org/2000/svg">
<rect width="300" height="300" rx="50" fill="#353535"></rect>
<path d="M233.414 138.588C232.052 130.771 232.461 120.325 232.733 115.635C232.801 114.64 231.712 113.93 230.895 114.427L211.355 126.01C208.835 127.502 207.201 130.131 206.861 133.116C204.614 155.997 209.176 165.164 215.508 187.477C181.466 168.859 163.083 157.987 104.326 165.449C113.518 160.261 118.692 156.14 128.36 150.739C138.232 145.267 148.173 139.796 157.909 134.324L168.189 145.054L174.044 138.943L165.466 130.06C196.785 112.366 225.244 95.3829 241.448 82.1657L245.397 78.5416L245.056 75.4149C245.056 75.4149 236.614 76.4098 233.89 76.9783C199.985 83.8711 160.7 85.9319 148.581 86.4293C128.292 85.6477 108.207 82.6631 88.7352 75.7703C82.6758 73.5674 76.8205 71.0803 71.1696 68.0957C65.042 63.69 63.6803 62.482 57.0762 59C57.0762 59 50.472 62.7662 47.0678 66.8166C46.2508 67.243 45.5019 67.6694 44.753 68.0957C41.2807 70.0144 37.6722 72.0041 35.4935 75.7703C34.8808 76.8362 34.4723 78.0442 34.3361 79.2522C34.268 79.6786 34.268 80.1049 34.4042 80.5313C34.8808 82.0946 37.3318 82.521 38.5573 83.2316C40.5318 84.2975 42.5062 85.5055 44.4806 86.7136C47.5444 88.6322 50.6082 90.6219 53.5358 92.8248C68.7185 103.981 81.1779 116.275 89.6203 133.542L90.7097 135.603C91.8671 138.09 94.6585 139.156 97.1096 138.09L115.22 129.918C117.739 128.781 118.896 125.655 117.671 123.025C114.607 116.275 110.454 109.595 106.097 103.484C141.773 106.539 166.691 104.834 199.848 97.799C184.938 107.392 177.04 111.514 158.317 122.528L149.058 113.219L143.202 119.33L150.487 126.578C141.364 131.197 131.969 135.461 122.573 140.648C88.3948 159.622 56.123 177.529 34.4723 191.954L31 194.299L35.9021 201.974L40.6679 199.558C90.7778 175.255 124.207 182.361 140.956 185.985C178.47 194.086 216.597 223.079 243.899 256.69C246.963 260.527 252.409 261.096 256.222 258.04C261.124 254.061 267.66 248.802 272.494 244.894C276.239 241.91 277.124 236.367 274.468 232.245C256.358 204.105 239.133 171.844 233.414 138.588Z" fill="#6EB1FF"></path>
</svg><style>@media (prefers-color-scheme: light) { :root { filter: none; } }
@media (prefers-color-scheme: dark) { :root { filter: none; } }
</style></svg>