<svg width="20" height="20" viewBox="0 0 20 20" fill="none" xmlns="http://www.w3.org/2000/svg">
<path d="M18.1628 6.28828L8.16276 16.2883C8.07566 16.3757 7.97217 16.445 7.85821 16.4923C7.74426 16.5397 7.62208 16.564 7.4987 16.564C7.37531 16.564 7.25313 16.5397 7.13918 16.4923C7.02522 16.445 6.92173 16.3757 6.83463 16.2883L2.45963 11.9133C2.37243 11.8261 2.30325 11.7225 2.25606 11.6086C2.20886 11.4947 2.18457 11.3725 2.18457 11.2492C2.18457 11.1259 2.20886 11.0038 2.25606 10.8898C2.30325 10.7759 2.37243 10.6724 2.45963 10.5852C2.54684 10.4979 2.65037 10.4288 2.76431 10.3816C2.87825 10.3344 3.00037 10.3101 3.1237 10.3101C3.24702 10.3101 3.36914 10.3344 3.48308 10.3816C3.59702 10.4288 3.70055 10.4979 3.78776 10.5852L7.49948 14.2969L16.8362 4.96172C17.0123 4.7856 17.2512 4.68665 17.5003 4.68665C17.7493 4.68665 17.9882 4.7856 18.1643 4.96172C18.3404 5.13784 18.4394 5.37671 18.4394 5.62578C18.4394 5.87485 18.3404 6.11372 18.1643 6.28984L18.1628 6.28828Z" fill="#69BD40"/>
</svg>
