<svg width="130" height="40" viewBox="0 0 130 40" fill="none" xmlns="http://www.w3.org/2000/svg">
<path d="M45.7055 8.22257C44.7937 9.86708 44.3438 11.66 44.3438 13.626C44.3438 15.5672 44.7937 17.3478 45.7055 18.9675C46.6172 20.5873 47.8486 21.8733 49.4235 22.8377C50.9983 23.7898 52.7034 24.272 54.5624 24.272V19.9567C53.4493 19.9567 52.431 19.6723 51.4956 19.1036C50.572 18.5348 49.8261 17.7682 49.2814 16.7913C48.7367 15.8269 48.4644 14.7635 48.4644 13.626C48.4644 12.4637 48.7367 11.3879 49.2814 10.3988C49.8261 9.40959 50.5602 8.63061 51.4956 8.0371C52.4192 7.45595 53.4493 7.1592 54.5624 7.1592V2.8439C52.7034 2.8439 50.9983 3.32612 49.4235 4.30294C47.8486 5.27976 46.6172 6.59042 45.7055 8.22257Z" fill="#9BACFF"/>
<path d="M70.9619 4.04327C69.3397 3.05409 67.5872 2.5595 65.6927 2.5595C63.7745 2.5595 62.0221 3.05409 60.4117 4.04327C58.8014 5.03246 57.5226 6.36785 56.5871 8.06182C55.6517 9.7558 55.1781 11.5858 55.1781 13.5641C55.1781 15.5425 55.6517 17.3725 56.5871 19.0541C57.5226 20.7357 58.8014 22.0711 60.4117 23.0603C62.0221 24.0495 63.7863 24.5441 65.6927 24.5441C67.5872 24.5441 69.3397 24.0495 70.9619 23.0603C72.584 22.0711 73.8629 20.7357 74.8101 19.0541C75.7574 17.3725 76.231 15.5425 76.231 13.5641C76.231 11.5858 75.7574 9.7558 74.8101 8.06182C73.8629 6.36785 72.584 5.03246 70.9619 4.04327ZM71.2342 16.9026C70.654 17.9289 69.8725 18.7326 68.8897 19.3385C67.9069 19.9444 66.8294 20.2411 65.6809 20.2411C64.5323 20.2411 63.4548 19.9444 62.472 19.3385C61.4892 18.7326 60.7077 17.9289 60.1394 16.9026C59.571 15.8887 59.2868 14.7759 59.2868 13.5641C59.2868 12.3648 59.571 11.2396 60.1394 10.2133C60.7077 9.18701 61.4774 8.37094 62.472 7.76507C63.4548 7.15919 64.5323 6.86244 65.6809 6.86244C66.8294 6.86244 67.9069 7.15919 68.8897 7.76507C69.8725 8.37094 70.654 9.18701 71.2342 10.2133C71.8144 11.2396 72.0986 12.3648 72.0986 13.5641C72.0986 14.7635 71.8144 15.8764 71.2342 16.9026Z" fill="#9BACFF"/>
<path d="M81.3936 19.9691V2.85626H77.2611V24.272H85.2537V20.3153C85.1708 20.204 85.0879 20.1051 85.0168 19.9938L81.3936 19.9691Z" fill="#9BACFF"/>
<path d="M102.565 8.04945C101.618 6.35548 100.339 5.02009 98.7166 4.03091C97.0944 3.04173 95.3539 2.5595 93.4593 2.5595C91.5293 2.5595 89.7887 3.04173 88.1665 4.03091C86.5443 5.02009 85.2892 6.35548 84.3419 8.04945C83.3947 9.74343 82.9329 11.5981 82.9329 13.5765C82.9329 15.5549 83.3947 17.3725 84.3419 19.0665C84.5314 19.4127 84.8037 19.6723 85.0168 19.9938C85.1116 20.0927 85.1708 20.2164 85.2655 20.3153C86.0944 21.4034 87.0061 22.3555 88.1665 23.0603C88.8414 23.4807 89.1138 23.7032 89.8124 23.9258L90.8425 21.1685H96.7866L97.3668 23.7156C98.1483 23.5301 98.8114 23.0479 98.8114 23.0479L99.5455 21.2056L100.955 21.1932C101.57 20.5502 102.139 19.8331 102.565 19.0665C103.512 17.3725 103.998 15.5549 103.998 13.5765C104.009 11.5981 103.512 9.74343 102.565 8.04945ZM99.0245 16.8903C98.4443 17.9165 97.651 18.745 96.6682 19.3138C95.6854 19.9196 94.6197 20.2411 93.4593 20.2411C92.2989 20.2411 91.2333 19.9196 90.2505 19.3138C89.2677 18.745 88.4744 17.9042 87.9297 16.8903C87.3495 15.864 87.0771 14.7512 87.0771 13.5641C87.0771 12.3524 87.3495 11.2396 87.9297 10.2133C88.4862 9.18701 89.2795 8.35858 90.2505 7.7527C91.2333 7.14683 92.2989 6.86244 93.4593 6.86244C94.6197 6.86244 95.6854 7.14683 96.6682 7.7527C97.651 8.35858 98.4443 9.18701 99.0245 10.2133C99.5692 11.2396 99.877 12.3524 99.877 13.5641C99.877 14.7512 99.5692 15.8763 99.0245 16.8903Z" fill="#9BACFF"/>
<path d="M115.649 19.1283C116.288 19.5116 117.058 19.796 117.946 19.932V24.272C116.442 24.1113 115.01 23.6291 113.672 22.8995C112.322 22.1329 111.315 21.0201 110.581 19.5487C109.883 18.0773 109.729 16.2597 110.119 14.1577C110.818 14.2813 111.469 14.2195 112.109 13.9351C112.724 13.6507 113.234 13.2303 113.601 12.6615C113.968 12.0556 114.157 11.4127 114.157 10.7202C114.157 10.0773 114.003 9.5085 113.695 8.96445C113.387 8.42041 112.997 7.97527 112.44 7.65379C111.919 7.3323 111.375 7.20866 110.759 7.20866H109.172V21.119C108.805 20.9583 108.462 20.9088 108.047 20.8964C105.963 20.8841 105.052 21.9104 105.052 21.9104V2.8439H110.771C112.121 2.8439 113.399 3.19011 114.536 3.8949C115.696 4.59969 116.62 5.55178 117.283 6.76352C117.958 7.97527 118.29 9.28594 118.29 10.6955C118.29 12.1669 117.923 13.5023 117.224 14.7141C116.49 15.9629 115.507 16.915 114.323 17.5827C114.583 18.238 115.01 18.745 115.649 19.1283Z" fill="#9BACFF"/>
<path d="M129.076 18.6461C129.076 20.3029 128.532 21.7125 127.395 22.8872C126.992 23.3076 126.566 23.6167 126.116 23.8393C125.998 23.3323 125.749 22.813 125.418 22.4049C124.695 21.4776 122.884 20.9583 121.261 21.3416L122.481 19.7589C122.753 20.0186 123.061 20.1422 123.428 20.1793C123.855 20.1793 124.222 20.0804 124.494 19.796C124.802 19.5363 124.956 19.2272 124.956 18.8439C124.956 18.4606 124.766 18.1391 124.47 17.8918L121.108 14.9243C119.485 13.5147 118.657 11.8331 118.657 9.78053C118.657 7.76507 119.355 6.00928 120.764 4.57497C122.173 3.14065 123.973 2.49768 126.116 2.65842C127.549 2.78207 128.863 3.30139 130 4.25348L127.431 7.64143C126.945 7.22102 126.389 6.99846 125.808 6.93663C124.956 6.87481 124.222 7.12211 123.641 7.66616C123.085 8.21021 122.813 8.8779 122.813 9.64452C122.813 10.4111 123.12 11.0541 123.724 11.5858L127.087 14.5286C128.402 15.6538 129.076 17.0263 129.076 18.6461Z" fill="#9BACFF"/>
<path d="M40.0219 16.0989C41.3599 16.0989 42.4492 14.9614 42.4492 13.5641C42.4492 12.1669 41.3599 11.0294 40.0219 11.0294C38.6838 11.0294 37.5945 12.1669 37.5945 13.5641C37.5826 14.9614 38.672 16.0989 40.0219 16.0989Z" fill="#9BACFF"/>
<path d="M35.2027 13.8485C34.9659 12.4884 35.0369 10.6708 35.0843 9.85471C35.0961 9.6816 34.9066 9.55796 34.7646 9.64451L31.3662 11.66C30.9281 11.9196 30.644 12.3771 30.5848 12.8964C30.194 16.8779 30.9873 18.4729 32.0885 22.3555C26.1681 19.1159 22.9711 17.2241 12.7525 18.5224C14.351 17.6198 15.2509 16.9026 16.9323 15.9629C18.6492 15.0108 20.378 14.0587 22.0712 13.1066L23.8592 14.9737L24.8775 13.9104L23.3856 12.3648C28.8323 9.28593 33.7818 6.33076 36.5999 4.03091L37.2866 3.40031L37.2274 2.85626C37.2274 2.85626 35.7592 3.02937 35.2856 3.12828C29.3888 4.32766 22.5567 4.68624 20.449 4.7728C16.9205 4.63679 13.4275 4.11747 10.041 2.91808C8.98716 2.53478 7.96885 2.10201 6.98607 1.58269C5.9204 0.816073 5.68358 0.605873 4.53502 0C4.53502 0 3.38647 0.65533 2.79443 1.36012C2.65234 1.43431 2.52209 1.5085 2.39184 1.58269C1.78796 1.91654 1.1604 2.26275 0.781491 2.91808C0.674924 3.10356 0.603879 3.31375 0.580197 3.52396C0.568357 3.59814 0.568357 3.67233 0.592038 3.74652C0.674924 4.01855 1.10119 4.09274 1.31433 4.21638C1.65771 4.40185 2.00109 4.61205 2.34448 4.82225C2.87731 5.1561 3.41015 5.50232 3.9193 5.88562C6.5598 7.82689 8.72666 9.966 10.1949 12.9706L10.3844 13.3292C10.5857 13.762 11.0711 13.9475 11.4974 13.762L14.6471 12.34C15.0852 12.1422 15.2865 11.5981 15.0733 11.1406C14.5405 9.96599 13.8182 8.80371 13.0604 7.74034C19.265 8.27202 23.5987 7.97527 29.3652 6.75116C26.772 8.4204 25.3985 9.13756 22.1423 11.0541L20.5319 9.43431L19.5136 10.4977L20.7806 11.7589C19.1939 12.5626 17.5599 13.3045 15.9259 14.2071C9.98179 17.5085 4.36925 20.6244 0.603879 23.1345L0 23.5425L0.852537 24.8779L1.68139 24.4575C10.3962 20.2288 16.21 21.4652 19.1229 22.0958C25.6471 23.5054 32.278 28.5502 37.0262 34.3988C37.559 35.0665 38.5062 35.1654 39.1693 34.6337C40.0219 33.9413 41.1586 33.0263 41.9993 32.3462C42.6505 31.8269 42.8045 30.8624 42.3427 30.1453C39.193 25.2488 36.1973 19.6352 35.2027 13.8485Z" fill="#9BACFF"/>
<path d="M124.683 23.493C124.127 22.8501 123.31 22.4791 122.422 22.4791C120.8 22.4791 119.308 23.7403 119.012 25.3478C118.881 26.1762 119.095 26.9923 119.663 27.6971L118.881 27.7465L118.692 28.8964C118.645 28.8346 118.597 28.7852 118.55 28.7233C117.792 27.8454 116.679 27.4003 115.246 27.4003C114.607 27.4003 113.991 27.5116 113.589 27.6847H109.811C110.32 27.1777 110.652 26.5348 110.759 25.8547C110.913 24.9892 110.676 24.136 110.131 23.4807C109.575 22.8377 108.758 22.4668 107.869 22.4668C106.674 22.4668 105.501 23.1716 104.874 24.2349L104.838 22.578L100.291 22.6275L97.2364 28.4389L95.9103 22.6028L91.5173 22.6522L85.9758 39.8145L92.0857 39.7651L93.0803 36.5131L93.7908 40H97.0351L98.7402 36.7357L98.7047 39.8145L122.824 39.7651L124.695 27.7218H124.364C124.873 27.2148 125.204 26.5719 125.311 25.8918C125.465 25.0015 125.24 24.1484 124.683 23.493ZM103.074 38.17H100.362L100.623 29.7249H100.587L96.0642 38.3431H95.1169L93.4829 29.7249H93.4474L90.8661 38.17H88.1545L92.7369 24.2102H94.6433L96.6089 33.1746L101.321 24.2102H103.263L103.074 38.17ZM106.899 38.17H104.329L105.762 29.3168H108.331L106.899 38.17ZM107.384 27.0912C106.543 27.0912 105.975 26.4235 106.105 25.5951C106.247 24.779 107.041 24.0989 107.881 24.0989C108.722 24.0989 109.29 24.7913 109.148 25.5951C109.018 26.4235 108.237 27.0912 107.384 27.0912ZM117.792 32.7666L116.916 38.1824H114.346L115.104 33.4961C115.282 32.4328 115.566 31.0603 114.11 31.0603C112.594 31.0603 112.298 32.7419 112.108 33.8053L111.41 38.1947H108.84L110.273 29.3416H112.843L112.712 30.1576H112.748C113.411 29.3663 114.346 29.0572 115.258 29.0572C117.674 29.0324 118.112 30.7017 117.792 32.7666ZM121.439 38.17H118.87L120.302 29.3168H122.872L121.439 38.17ZM123.689 25.5951C123.559 26.4235 122.777 27.0912 121.924 27.0912C121.084 27.0912 120.515 26.4235 120.646 25.5951C120.788 24.779 121.581 24.0989 122.422 24.0989C123.274 24.0989 123.843 24.7913 123.689 25.5951Z" fill="#9BACFF"/>
</svg>
