<svg width="17" height="16" viewBox="0 0 17 16" fill="none" xmlns="http://www.w3.org/2000/svg">
<path d="M7.25 5.25C7.25 5.05222 7.30865 4.85888 7.41853 4.69443C7.52841 4.52998 7.68459 4.40181 7.86732 4.32612C8.05005 4.25043 8.25111 4.23063 8.44509 4.26921C8.63907 4.3078 8.81726 4.40304 8.95711 4.54289C9.09696 4.68275 9.1922 4.86093 9.23079 5.05491C9.26937 5.24889 9.24957 5.44996 9.17388 5.63268C9.0982 5.81541 8.97002 5.97159 8.80557 6.08147C8.64112 6.19135 8.44778 6.25 8.25 6.25C7.98479 6.25 7.73043 6.14464 7.5429 5.95711C7.35536 5.76957 7.25 5.51522 7.25 5.25ZM15.25 8C15.25 9.33502 14.8541 10.6401 14.1124 11.7501C13.3707 12.8601 12.3165 13.7253 11.0831 14.2362C9.84971 14.7471 8.49252 14.8808 7.18314 14.6203C5.87377 14.3598 4.67104 13.717 3.72703 12.773C2.78303 11.829 2.14015 10.6262 1.8797 9.31686C1.61925 8.00749 1.75292 6.65029 2.26382 5.41689C2.77471 4.18349 3.63987 3.12928 4.7499 2.38758C5.85994 1.64588 7.16498 1.25 8.5 1.25C10.2896 1.25199 12.0053 1.96378 13.2708 3.22922C14.5362 4.49466 15.248 6.2104 15.25 8ZM13.75 8C13.75 6.96165 13.4421 5.94661 12.8652 5.08326C12.2883 4.2199 11.4684 3.54699 10.5091 3.14963C9.54978 2.75227 8.49418 2.6483 7.47578 2.85088C6.45738 3.05345 5.52192 3.55346 4.78769 4.28769C4.05347 5.02191 3.55345 5.95738 3.35088 6.97578C3.14831 7.99418 3.25228 9.04978 3.64964 10.0091C4.047 10.9684 4.7199 11.7883 5.58326 12.3652C6.44662 12.9421 7.46165 13.25 8.5 13.25C9.89193 13.2485 11.2264 12.6949 12.2107 11.7107C13.1949 10.7264 13.7485 9.39193 13.75 8ZM9.25 10.2925V8.25C9.25 7.91848 9.11831 7.60054 8.88389 7.36612C8.64947 7.1317 8.33152 7 8 7C7.82288 6.99974 7.65139 7.06217 7.51588 7.17623C7.38038 7.2903 7.28962 7.44864 7.25968 7.62321C7.22974 7.79778 7.26254 7.97731 7.35229 8.13001C7.44203 8.28271 7.58292 8.39872 7.75 8.4575V10.5C7.75 10.8315 7.8817 11.1495 8.11612 11.3839C8.35054 11.6183 8.66848 11.75 9 11.75C9.17712 11.7503 9.34862 11.6878 9.48412 11.5738C9.61962 11.4597 9.71038 11.3014 9.74032 11.1268C9.77027 10.9522 9.73746 10.7727 9.64772 10.62C9.55798 10.4673 9.41709 10.3513 9.25 10.2925Z" fill="#C7C7C7"/>
</svg>
