<svg width="20" height="20" viewBox="0 0 20 20" fill="none" xmlns="http://www.w3.org/2000/svg">
<path d="M13.1634 15.5867C13.3396 15.7628 13.4385 16.0017 13.4385 16.2508C13.4385 16.4999 13.3396 16.7387 13.1634 16.9148C12.9873 17.091 12.7484 17.1899 12.4994 17.1899C12.2503 17.1899 12.0114 17.091 11.8353 16.9148L5.58531 10.6648C5.49791 10.5777 5.42856 10.4743 5.38124 10.3603C5.33393 10.2463 5.30957 10.1242 5.30957 10.0008C5.30957 9.87739 5.33393 9.75522 5.38124 9.64126C5.42856 9.52731 5.49791 9.42381 5.58531 9.33672L11.8353 3.08672C12.0114 2.9106 12.2503 2.81165 12.4994 2.81165C12.7484 2.81165 12.9873 2.9106 13.1634 3.08672C13.3396 3.26284 13.4385 3.50171 13.4385 3.75078C13.4385 3.99985 13.3396 4.23872 13.1634 4.41484L7.57828 10L13.1634 15.5867Z" fill="#212121"/>
</svg>
