<svg width="20" height="20" viewBox="0 0 20 20" fill="none" xmlns="http://www.w3.org/2000/svg">
<path fill-rule="evenodd" clip-rule="evenodd" d="M16.4148 3.58545C16.7507 3.92138 16.7507 4.46604 16.4148 4.80198L4.80185 16.4149C4.46592 16.7508 3.92126 16.7508 3.58533 16.4149C3.24939 16.0789 3.24939 15.5343 3.58533 15.1984L15.1982 3.58545C15.5342 3.24951 16.0788 3.24951 16.4148 3.58545Z" fill="#FD5848"/>
<path fill-rule="evenodd" clip-rule="evenodd" d="M3.58533 3.58545C3.92126 3.24951 4.46592 3.24951 4.80185 3.58545L16.4148 15.1984C16.7507 15.5343 16.7507 16.0789 16.4148 16.4149C16.0788 16.7508 15.5342 16.7508 15.1982 16.4149L3.58533 4.80198C3.24939 4.46604 3.24939 3.92138 3.58533 3.58545Z" fill="#FD5848"/>
</svg>
